<svg xmlns="http://www.w3.org/2000/svg" width="64" height="64" viewBox="0 0 64 64" role="img" aria-labelledby="title desc">
  <title id="title">Mr Mainspring mark</title>
  <desc id="desc">A bronze clockwork mark for the Mr Mainspring documentation.</desc>
  <rect width="64" height="64" rx="12" fill="#17120e"/>
  <circle cx="32" cy="32" r="22" fill="#c7b38c"/>
  <circle cx="32" cy="32" r="19" fill="#9b6a38"/>
  <circle cx="32" cy="32" r="15" fill="#d8c39b"/>
  <path d="M32 19v5M32 40v5M19 32h5M40 32h5M23 23l3.5 3.5M37.5 37.5 41 41M41 23l-3.5 3.5M26.5 37.5 23 41" stroke="#241b14" stroke-width="2" stroke-linecap="round"/>
  <path d="M32 32 25 27M32 32l9-6M32 32l-5 8" stroke="#17120e" stroke-width="2.4" stroke-linecap="round"/>
  <circle cx="32" cy="32" r="3" fill="#17120e"/>
  <path d="M47 29h6v6h-6z" fill="#9b6a38"/>
</svg>
