<svg xmlns="http://www.w3.org/2000/svg" width="64" height="64" viewBox="0 0 64 64" role="img" aria-labelledby="title desc">
  <title id="title">SIGIL mark</title>
  <desc id="desc">A compact shield and anchor mark for the SIGIL documentation.</desc>
  <rect width="64" height="64" rx="12" fill="#0f766e"/>
  <path d="M32 9 50 16v14c0 12.1-7.4 20.4-18 25-10.6-4.6-18-12.9-18-25V16l18-7Z" fill="#f8fafc"/>
  <path d="M32 17a5 5 0 1 0 0 10 5 5 0 0 0 0-10Zm-2 14v10.8a9.2 9.2 0 0 1-6.7-4.1l-3.3 2A13.1 13.1 0 0 0 32 46a13.1 13.1 0 0 0 12-6.3l-3.3-2a9.2 9.2 0 0 1-6.7 4.1V31h6v-4H24v4h6Z" fill="#0f766e"/>
</svg>
